{"title":"Barfi! 2012 XViD DVDRip LOTTERY (ICFG) - Hindi","uid":7817395,"size":856040182,"categoryP":"video","categoryS":"movies","magnet":"?xt=urn:btih:96239fc60f131992637533592aeb94d623b3817a&amp;dn=Barfi%21+2012+XViD+DVDRip+LOTTERY+%28ICFG%29+-+Hindi&amp;tr=udp%3A%2F%2Ftracker.openbittorrent.com%3A80&amp;tr=udp%3A%2F%2Fopen.demonii.com%3A1337&amp;tr=udp%3A%2F%2Ftracker.coppersurfer.tk%3A6969&amp;tr=udp%3A%2F%2Fexodus.desync.com%3A6969","seeders":0,"leechers":0,"uploader":"SJonam","files":1,"time":1352715005,"description":" &lt;a href=&quot;http://desibbrg.org/images/66952052392581364616.gif&quot; rel=&quot;nofollow&quot; target=&quot;_NEW&quot;&gt;http://desibbrg.org/images/66952052392581364616.gif&lt;/a&gt;\n &lt;a href=&quot;\nhttp://desibbrg.org/images/67851811051799764353.jpg&quot; rel=&quot;nofollow&quot; target=&quot;_NEW&quot;&gt;\nhttp://desibbrg.org/images/67851811051799764353.jpg&lt;/a&gt;\n &lt;a href=&quot;\nhttp://desibbrg.org/images/04895811057066345362.png&quot; rel=&quot;nofollow&quot; target=&quot;_NEW&quot;&gt;\nhttp://desibbrg.org/images/04895811057066345362.png&lt;/a&gt;\n &lt;a href=&quot;\nhttp://desibbrg.org/images/62389969007622289126.png&quot; rel=&quot;nofollow&quot; target=&quot;_NEW&quot;&gt;\nhttp://desibbrg.org/images/62389969007622289126.png&lt;/a&gt;\n &lt;a href=&quot;\nhttp://desibbrg.org/images/15442924756393170208.png&quot; rel=&quot;nofollow&quot; target=&quot;_NEW&quot;&gt;\nhttp://desibbrg.org/images/15442924756393170208.png&lt;/a&gt;\n &lt;a href=&quot;\nhttp://desibbrg.org/images/53589706970621220894.png&quot; rel=&quot;nofollow&quot; target=&quot;_NEW&quot;&gt;\nhttp://desibbrg.org/images/53589706970621220894.png&lt;/a&gt;\n\nMedia Info - \nGeneral\nFormat                           : AVI\nFormat/Info                      : Audio Video Interleave\nFile size                        : 816 MiB\nDuration                         : 2h 5mn\nOverall bit rate                 : 909 Kbps\n\nVideo\nID                               : 0\nFormat                           : mp43\nCodec ID                         : mp43\nDuration                         : 2h 5mn\nBit rate                         : 34.9 Kbps\nWidth                            : 608 pixels\nHeight                           : 260 pixels\nDisplay aspect ratio             : 2.35:1\nFrame rate                       : 23.976 fps\nBits/(Pixel*Frame)               : 0.009\nStream size                      : 31.4 MiB (4%)\n\nAudio\nID                               : 1\nFormat                           : MPEG Audio\nCodec ID                         : 55\nCodec ID/Hint                    : MP3\nDuration                         : 2h 5mn\nBit rate                         : 128 Kbps\nChannel(s)                       : 2 channels\nSampling rate                    : 32.0 KHz\nCompression mode                 : Lossy\nStream size                      : 115 MiB (14%)\nAlignment                        : Aligned on interleaves\n\nRipper : LOTTERY\n\nSeeding 24x7... Extreme Seeding...\n\n\nEnjoy!\n","torrent":{"xt":"urn:btih:96239fc60f131992637533592aeb94d623b3817a","amp;dn":"Barfi%21+2012+XViD+DVDRip+LOTTERY+%28ICFG%29+-+Hindi","amp;tr":["udp%3A%2F%2Ftracker.openbittorrent.com%3A80","udp%3A%2F%2Fopen.demonii.com%3A1337","udp%3A%2F%2Ftracker.coppersurfer.tk%3A6969","udp%3A%2F%2Fexodus.desync.com%3A6969"],"infoHash":"96239fc60f131992637533592aeb94d623b3817a","infoHashBuffer":{"type":"Buffer","data":[150,35,159,198,15,19,25,146,99,117,51,89,42,235,148,214,35,179,129,122]},"announce":[],"urlList":[]}}